
<!-- Generator: visioncortex VTracer 0.6.4 -->
<svg version="1.1" xmlns="http://www.w3.org/2000/svg" viewBox="0 0 32 32" preserveAspectRatio="xMidYMid meet">
<path d="M0 0 C0.976 -0.012 1.952 -0.024 2.957 -0.037 C4.355 -0.04 4.355 -0.04 5.781 -0.043 C6.638 -0.047 7.494 -0.051 8.377 -0.055 C10.5 0.188 10.5 0.188 12.5 2.188 C12.743 4.953 12.743 4.953 12.73 8.438 C12.729 9.685 12.727 10.933 12.725 12.219 C12.706 14.183 12.706 14.183 12.688 16.188 C12.687 17.497 12.686 18.807 12.686 20.156 C12.64 29.907 12.64 29.907 11.5 32.188 C7.708 32.245 3.917 32.281 0.125 32.312 C-0.955 32.329 -2.035 32.346 -3.148 32.363 C-4.18 32.37 -5.211 32.376 -6.273 32.383 C-7.703 32.399 -7.703 32.399 -9.162 32.415 C-11.5 32.188 -11.5 32.188 -13.5 30.188 C-13.743 28.16 -13.743 28.16 -13.73 25.68 C-13.729 24.775 -13.727 23.87 -13.725 22.938 C-13.712 21.989 -13.7 21.04 -13.688 20.062 C-13.687 19.137 -13.686 18.211 -13.686 17.258 C-13.651 11.828 -13.47 6.537 -12.5 1.188 C-8.73 -0.698 -4.148 0.003 0 0 Z " fill="#56BEEE" transform="translate(16.5,-0.1875)"/>
<path d="M0 0 C0.33 0 0.66 0 1 0 C1.061 0.88 1.121 1.761 1.184 2.668 C1.267 3.829 1.351 4.991 1.438 6.188 C1.519 7.336 1.6 8.485 1.684 9.668 C1.954 12.516 2.375 15.212 3 18 C3.66 18 4.32 18 5 18 C5 18.66 5 19.32 5 20 C11.6 20.33 18.2 20.66 25 21 C25 21.66 25 22.32 25 23 C21.208 23.058 17.417 23.094 13.625 23.125 C12.005 23.15 12.005 23.15 10.352 23.176 C9.32 23.182 8.289 23.189 7.227 23.195 C5.797 23.211 5.797 23.211 4.338 23.227 C2 23 2 23 0 21 C-0.227 18.845 -0.227 18.845 -0.195 16.211 C-0.189 15.27 -0.182 14.329 -0.176 13.359 C-0.159 12.375 -0.142 11.39 -0.125 10.375 C-0.116 9.382 -0.107 8.39 -0.098 7.367 C-0.074 4.911 -0.041 2.456 0 0 Z " fill="#22334E" transform="translate(3,9)"/>
<path d="M0 0 C0.33 0 0.66 0 1 0 C1.33 2.31 1.66 4.62 2 7 C2.66 6.67 3.32 6.34 4 6 C4 12.27 4 18.54 4 25 C3.34 25 2.68 25 2 25 C-0.644 20.056 -0.225 15.132 -0.125 9.688 C-0.116 8.756 -0.107 7.825 -0.098 6.865 C-0.074 4.577 -0.041 2.288 0 0 Z " fill="#5B7FC3" transform="translate(4,2)"/>
<path d="M0 0 C0.33 0 0.66 0 1 0 C1.061 0.88 1.121 1.761 1.184 2.668 C1.267 3.829 1.351 4.991 1.438 6.188 C1.519 7.336 1.6 8.485 1.684 9.668 C1.954 12.516 2.375 15.212 3 18 C3.66 18 4.32 18 5 18 C5 18.66 5 19.32 5 20 C3.35 20.33 1.7 20.66 0 21 C0 14.07 0 7.14 0 0 Z " fill="#35436A" transform="translate(3,9)"/>
<path d="M0 0 C0.99 0.33 1.98 0.66 3 1 C3 3.64 3 6.28 3 9 C1.68 9.33 0.36 9.66 -1 10 C-1.33 7.03 -1.66 4.06 -2 1 C-1.34 0.67 -0.68 0.34 0 0 Z " fill="#75C3F4" transform="translate(6,0)"/>
<path d="M0 0 C0.33 0 0.66 0 1 0 C1.33 2.31 1.66 4.62 2 7 C2.66 6.67 3.32 6.34 4 6 C4.196 10.219 3.802 13.17 2 17 C1.67 17 1.34 17 1 17 C0.096 13.163 -0.106 9.625 -0.062 5.688 C-0.053 4.619 -0.044 3.55 -0.035 2.449 C-0.024 1.641 -0.012 0.833 0 0 Z " fill="#699ADB" transform="translate(4,2)"/>
<path d="M0 0 C0.33 0 0.66 0 1 0 C1 2.31 1 4.62 1 7 C0.67 7 0.34 7 0 7 C0 4.69 0 2.38 0 0 Z " fill="#3F88D5" transform="translate(30,21)"/>
<path d="" fill="#0D1119" transform="translate(0,0)"/>
<path d="" fill="#59F8FF" transform="translate(0,0)"/>
<path d="" fill="#9BCFF9" transform="translate(0,0)"/>
<path d="" fill="#89C9F8" transform="translate(0,0)"/>
</svg>